<?xml version="1.0" standalone="no"?>
<!DOCTYPE svg PUBLIC "-//W3C//DTD SVG 20010904//EN"
 "http://www.w3.org/TR/2001/REC-SVG-20010904/DTD/svg10.dtd">
<svg version="1.0" xmlns="http://www.w3.org/2000/svg"
 width="384.000000pt" height="384.000000pt" viewBox="0 0 384.000000 384.000000"
 preserveAspectRatio="xMidYMid meet">
<metadata>
Created by potrace 1.14, written by Peter Selinger 2001-2017
</metadata>
<g transform="translate(0.000000,384.000000) scale(0.100000,-0.100000)"
fill="#000000" stroke="none">
<path d="M2670 3750 c-270 -6 -494 -29 -670 -68 l-75 -17 -3 -271 -2 -271 45
-13 c56 -16 205 -6 252 16 28 14 34 14 58 -2 14 -9 30 -25 35 -35 14 -26 11
-90 -5 -119 -8 -14 -14 -35 -15 -47 0 -12 -7 -28 -15 -37 -8 -8 -15 -20 -15
-26 0 -8 -9 -10 -27 -6 -16 4 -37 8 -48 10 -35 7 -79 27 -100 45 -19 18 -128
61 -153 61 -8 0 -12 -61 -14 -222 l-3 -223 -28 -9 c-19 -7 -37 -6 -60 2 -28
10 -35 10 -57 -6 -28 -21 -38 -66 -19 -89 10 -12 24 -14 62 -8 45 5 53 3 78
-21 29 -28 29 -28 29 -155 0 -125 0 -128 -21 -124 -12 3 -27 1 -33 -3 -17 -10
-36 -13 -93 -15 -37 -1 -58 -8 -75 -23 -13 -12 -29 -19 -35 -17 -7 3 -13 0
-13 -6 0 -6 -9 -11 -20 -11 -15 0 -20 -7 -20 -29 0 -31 -21 -56 -42 -49 -7 3
-18 -2 -24 -10 -9 -13 -14 -12 -32 6 -27 27 -27 28 -4 35 11 2 22 15 25 28 l6
24 -19 -25 c-11 -14 -20 -21 -20 -16 0 5 -6 3 -14 -3 -19 -16 -26 -57 -12 -72
8 -9 7 -10 -7 -5 -10 3 -22 6 -27 6 -5 0 -16 7 -24 16 -15 14 -16 14 -16 -5 0
-12 -6 -21 -15 -21 -9 0 -15 9 -15 25 0 17 -6 25 -17 25 -9 0 -13 3 -9 8 4 4
21 7 37 7 16 0 29 5 29 10 1 6 10 13 22 18 17 6 18 10 8 22 -11 13 -10 14 5 9
13 -6 16 -4 10 5 -5 10 -2 11 12 7 23 -7 53 2 53 15 0 5 -7 9 -16 9 -22 0 -11
60 21 110 13 21 26 55 30 76 6 39 6 39 -12 18 -31 -35 -106 -82 -150 -93 -24
-6 -60 -15 -81 -21 -54 -14 -255 1 -267 20 -3 6 -16 5 -30 0 -14 -5 -59 -11
-102 -12 -43 -2 -81 -7 -84 -11 -3 -4 -27 -3 -54 3 -51 11 -66 7 -47 -12 21
-21 13 -27 -20 -17 l-33 9 29 -23 c33 -26 31 -57 -4 -57 -11 0 -30 -10 -41
-21 -16 -16 -23 -18 -29 -9 -4 7 -12 11 -18 9 -6 -3 -4 -18 7 -40 16 -32 16
-40 4 -63 l-14 -26 -304 0 -305 0 0 -165 0 -165 298 0 c164 0 596 -3 960 -7
l662 -6 0 82 c0 72 4 90 28 132 15 27 32 49 37 49 6 0 15 8 21 18 7 10 30 24
53 32 22 7 41 17 41 21 0 11 1014 6 1055 -5 40 -10 93 -36 131 -63 38 -28 48
-28 89 -3 27 17 37 18 63 9 25 -9 41 -7 76 6 38 15 48 15 72 3 22 -10 31 -25
43 -70 15 -57 26 -69 47 -48 14 14 94 1 94 -15 0 -15 35 -26 56 -18 11 4 14
32 14 133 l0 128 -55 26 c-31 14 -59 26 -63 26 -11 0 -57 -50 -71 -77 -6 -13
-16 -23 -22 -23 -12 0 -35 52 -50 117 -21 85 -30 105 -45 92 -22 -18 -34 0
-34 54 0 61 -11 82 -42 82 -29 0 -46 36 -54 111 -3 33 -10 81 -15 108 -5 27
-7 75 -4 105 3 31 7 97 9 146 2 59 9 100 20 120 9 17 16 38 16 48 0 9 5 17 10
17 6 0 10 -7 10 -15 0 -24 29 -29 51 -9 22 19 47 96 54 163 3 36 1 44 -15 48
-10 3 -24 17 -30 33 -6 15 -23 36 -38 47 -15 11 -40 46 -55 77 -23 48 -31 55
-43 45 -20 -17 -21 -194 0 -186 45 17 49 -113 5 -174 -23 -32 -24 -43 -27
-194 -2 -89 1 -189 7 -225 6 -36 13 -92 15 -125 2 -33 6 -67 9 -75 3 -8 10
-85 17 -170 6 -85 14 -174 17 -198 l5 -43 -33 3 -34 3 3 190 c1 129 -2 221
-12 285 -33 210 -39 260 -46 385 -5 72 -13 200 -20 285 -6 85 -13 187 -15 225
-4 67 -11 113 -22 145 -4 12 -7 12 -19 -4 -14 -19 -14 -19 -14 3 0 13 10 39
21 58 23 36 31 124 16 176 -6 21 -4 27 8 27 21 0 19 17 -5 30 -16 9 -20 8 -20
-5 0 -8 -4 -15 -10 -15 -5 0 -10 4 -10 8 0 13 -134 11 -142 -2 -6 -8 -8 -8 -8
2 0 25 -28 11 -33 -18 -7 -35 -27 -40 -27 -7 -1 58 -26 63 -330 57z m307 -62
c-3 -8 -6 -5 -6 6 -1 11 2 17 5 13 3 -3 4 -12 1 -19z m92 -130 c-3 -61 -1 -83
9 -84 6 -1 16 -2 21 -3 6 -1 6 -13 -1 -32 l-11 -32 -14 24 c-13 23 -14 22 -8
-13 4 -24 2 -38 -5 -38 -5 0 -10 7 -10 16 0 10 -7 14 -17 12 -10 -2 -17 -10
-15 -16 1 -7 -2 -12 -8 -12 -11 0 -14 93 -3 104 4 4 13 -8 19 -26 7 -18 13
-25 13 -16 1 9 -4 28 -10 42 -8 18 -9 29 -2 38 6 7 14 29 18 48 19 98 28 93
24 -12z m27 -35 c-10 -10 -19 5 -10 18 6 11 8 11 12 0 2 -7 1 -15 -2 -18z
m124 -128 c0 -8 -2 -15 -4 -15 -2 0 -6 7 -10 15 -3 8 -1 15 4 15 6 0 10 -7 10
-15z m-2168 -1261 c43 -6 45 -8 57 -53 8 -25 19 -72 26 -103 l13 -58 -169 0
-168 0 14 33 c7 18 16 62 20 97 4 36 8 71 10 78 5 13 117 17 197 6z m-362 -98
c0 -11 -19 -15 -25 -6 -3 5 1 10 9 10 9 0 16 -2 16 -4z m3050 -246 c12 -8 11
-10 -7 -10 -13 0 -23 5 -23 10 0 13 11 13 30 0z"/>
<path d="M3294 3466 c-9 -24 0 -99 13 -103 8 -3 13 11 15 39 l3 43 218 1 217
2 0 -45 c0 -50 -23 -57 -28 -10 -2 15 -10 27 -17 27 -19 0 -73 -50 -60 -56 6
-2 10 -20 9 -38 -3 -63 20 -78 102 -67 5 0 25 13 42 27 39 32 43 71 10 76 -20
3 -23 10 -26 61 l-3 57 -245 0 c-199 0 -246 -3 -250 -14z"/>
<path d="M3352 3393 c3 -24 8 -27 41 -30 42 -2 47 10 15 38 -35 28 -60 25 -56
-8z"/>
<path d="M3460 3395 c0 -16 6 -25 15 -25 9 0 15 9 15 25 0 16 -6 25 -15 25 -9
0 -15 -9 -15 -25z"/>
<path d="M3530 3395 c0 -16 6 -25 15 -25 9 0 15 9 15 25 0 16 -6 25 -15 25 -9
0 -15 -9 -15 -25z"/>
<path d="M3602 3395 c2 -14 8 -26 13 -26 6 0 11 12 13 26 2 18 -1 25 -13 25
-12 0 -15 -7 -13 -25z"/>
<path d="M1469 3360 c-9 -19 -19 -48 -23 -64 -9 -36 -46 -86 -63 -86 -8 0 -16
-7 -19 -15 -3 -8 -22 -19 -41 -26 -46 -15 -123 -69 -123 -86 0 -7 -3 -13 -8
-13 -4 0 -12 -10 -17 -22 -11 -24 -53 -58 -77 -62 -15 -2 -45 -26 -93 -74 -14
-14 -26 -19 -30 -12 -3 5 -15 10 -26 10 -17 0 -23 -12 -22 -47 0 -7 -19 -24
-44 -39 -29 -17 -43 -31 -39 -40 3 -8 1 -14 -4 -14 -6 0 -29 -19 -52 -41 l-43
-42 80 41 c90 45 112 64 180 151 26 34 51 61 55 61 4 0 30 18 58 40 27 22 55
40 60 40 6 0 0 -20 -14 -44 -28 -49 -48 -123 -58 -208 -7 -52 -10 -58 -39 -69
l-32 -13 44 -4 c53 -4 72 2 65 22 -3 8 4 24 16 36 11 11 18 26 14 31 -4 6 -3
14 2 18 11 7 54 111 54 129 0 6 13 33 29 59 16 27 32 65 36 85 5 28 23 52 80
106 90 84 117 129 113 186 l-3 41 -16 -35z"/>
<path d="M1535 3310 c7 -12 65 -43 70 -38 2 2 1 8 -3 14 -9 14 -75 37 -67 24z"/>
<path d="M1610 3300 c0 -5 5 -10 11 -10 5 0 7 5 4 10 -3 6 -8 10 -11 10 -2 0
-4 -4 -4 -10z"/>
<path d="M1710 3085 c0 -8 4 -15 10 -15 5 0 7 7 4 15 -4 8 -8 15 -10 15 -2 0
-4 -7 -4 -15z"/>
<path d="M1750 3060 c0 -5 5 -10 11 -10 5 0 7 5 4 10 -3 6 -8 10 -11 10 -2 0
-4 -4 -4 -10z"/>
<path d="M1628 3018 c-16 -20 -19 -20 -65 -7 -26 8 -65 13 -87 12 -48 -2 -106
-29 -106 -49 0 -8 4 -13 9 -10 5 4 12 -7 16 -24 6 -29 25 -42 25 -17 0 7 14
28 31 46 29 32 33 33 85 28 53 -5 135 -39 155 -63 7 -9 4 -19 -12 -35 -28 -28
-10 -41 41 -30 30 6 35 11 38 39 3 26 -5 40 -46 82 -27 27 -53 50 -58 50 -5 0
-17 -10 -26 -22z"/>
<path d="M1640 2845 c-14 -8 -33 -14 -42 -15 -20 0 -22 -8 -9 -28 6 -11 10
-10 15 3 4 11 12 15 23 11 16 -6 53 19 53 36 0 11 -11 10 -40 -7z"/>
<path d="M1473 2813 c9 -2 25 -2 35 0 9 3 1 5 -18 5 -19 0 -27 -2 -17 -5z"/>
<path d="M1610 2774 l-25 -13 32 2 c18 1 33 5 33 9 0 14 -16 14 -40 2z"/>
<path d="M1640 2668 c-1 -26 -24 -73 -37 -73 -4 0 -24 -10 -43 -21 -19 -12
-45 -25 -57 -29 -13 -3 -23 -13 -23 -20 0 -8 -12 -17 -27 -21 -16 -3 -38 -10
-51 -15 -13 -5 -34 -9 -48 -9 -14 0 -39 -8 -57 -17 -24 -14 -58 -18 -137 -19
-58 -1 -123 -7 -145 -14 -22 -7 -49 -12 -60 -11 -11 1 -74 3 -140 6 -170 6
-104 -14 80 -25 79 -4 176 -17 223 -28 91 -23 152 -20 152 7 0 19 69 53 151
75 90 24 165 62 192 98 38 52 62 138 37 138 -5 0 -10 -10 -10 -22z"/>
<path d="M1330 2380 c-13 -9 -13 -10 0 -10 8 0 22 5 30 10 13 9 13 10 0 10 -8
0 -22 -5 -30 -10z"/>
<path d="M1857 2165 c6 -17 25 -15 31 3 2 7 -5 12 -17 12 -14 0 -19 -5 -14
-15z"/>
<path d="M1567 2032 c-11 -11 -13 -22 -7 -32 10 -16 12 -15 28 23 13 31 3 36
-21 9z"/>
<path d="M1445 2001 c-3 -5 -1 -12 4 -15 5 -3 11 1 15 9 6 16 -9 21 -19 6z"/>
<path d="M3191 1790 c0 -16 22 -50 33 -50 11 0 6 14 -14 40 -13 16 -20 20 -19
10z"/>
<path d="M3238 1788 c-6 -17 1 -38 13 -38 5 0 9 11 9 25 0 26 -14 34 -22 13z"/>
<path d="M3365 1785 c-4 -11 -11 -28 -16 -37 -5 -11 -5 -18 0 -18 5 0 12 7 15
17 6 14 8 14 22 -3 14 -18 15 -18 8 6 -3 14 -10 32 -15 40 -6 12 -9 12 -14 -5z"/>
<path d="M2380 1785 c1 -6 7 -21 16 -35 l15 -25 -7 25 c-7 26 -24 52 -24 35z"/>
<path d="M2510 1781 c0 -5 7 -12 16 -15 14 -5 15 -4 4 9 -14 17 -20 19 -20 6z"/>
<path d="M2921 1774 c0 -11 3 -14 6 -6 3 7 2 16 -1 19 -3 4 -6 -2 -5 -13z"/>
<path d="M2962 1760 c0 -19 2 -27 5 -17 2 9 2 25 0 35 -3 9 -5 1 -5 -18z"/>
<path d="M3832 1665 c0 -16 2 -22 5 -12 2 9 2 23 0 30 -3 6 -5 -1 -5 -18z"/>
<path d="M2330 1588 c4 -41 0 -48 -21 -48 -11 0 -17 -5 -14 -10 4 -6 23 -7 47
-3 31 5 39 3 33 -6 -4 -8 1 -24 13 -40 l20 -28 -34 -13 c-19 -8 -34 -17 -34
-21 0 -4 -2 -13 -5 -21 -3 -7 -1 -19 4 -27 8 -12 11 -12 23 0 7 8 20 28 28 44
9 17 22 31 30 31 8 1 20 2 25 3 6 0 -3 12 -19 26 -27 23 -29 28 -18 61 9 30 8
36 -6 41 -9 4 -18 1 -20 -5 -6 -19 -32 -14 -33 6 -1 9 -1 20 0 25 0 4 -4 7
-10 7 -6 0 -10 -10 -9 -22z"/>
<path d="M3780 1540 c0 -11 -4 -20 -9 -20 -5 0 -11 -11 -13 -25 -3 -14 -2 -25
1 -25 3 0 19 -20 34 -45 16 -25 33 -45 38 -45 5 0 9 41 9 90 l0 90 -30 0 c-23
0 -30 -4 -30 -20z"/>
<path d="M2834 1539 c-5 -9 -24 -26 -42 -39 -18 -13 -30 -30 -28 -37 3 -8 -2
-13 -14 -13 -23 0 -25 -10 -7 -29 10 -11 9 -13 -4 -8 -9 3 -22 -3 -29 -13 -16
-22 -43 -15 -35 10 4 11 -3 20 -20 28 -14 7 -25 20 -25 31 0 13 -9 20 -30 23
-35 5 -54 -10 -40 -32 6 -8 10 -19 10 -25 0 -5 -4 -4 -8 3 -9 13 -42 6 -42 -9
0 -5 -6 -9 -14 -9 -23 0 -26 -14 -10 -46 9 -17 11 -30 5 -32 -12 -4 -2 -112
12 -130 8 -10 5 -14 -11 -19 -22 -5 -31 -23 -11 -23 5 0 8 -4 5 -8 -3 -5 1
-20 9 -35 7 -14 10 -28 7 -32 -4 -3 -1 -10 7 -14 8 -5 14 -44 18 -116 3 -59
11 -117 17 -129 29 -54 73 -105 89 -106 46 -1 135 -50 139 -77 2 -16 34 -32
61 -33 29 0 30 -2 29 -95 0 -46 0 -45 10 20 6 39 12 72 14 74 2 2 12 -7 23
-20 11 -13 20 -19 21 -14 0 6 -5 16 -11 22 -7 7 -6 12 5 16 10 4 22 -3 32 -18
17 -27 52 -33 72 -13 9 9 12 9 12 -1 0 -7 5 -9 10 -6 6 3 10 15 10 26 0 30 20
12 21 -19 1 -27 1 -27 8 3 3 17 12 31 19 31 6 1 17 2 23 3 8 1 8 6 -1 16 -7 8
-9 15 -6 15 4 0 -5 11 -19 24 -14 13 -22 27 -16 30 5 4 12 2 16 -4 10 -15 35
-12 35 5 0 8 5 15 11 15 5 0 7 5 3 12 -5 8 -2 9 9 5 13 -5 17 -1 17 18 0 14
-5 25 -11 25 -12 0 -3 51 10 60 19 13 56 181 60 274 2 49 -1 57 -24 72 -14 9
-25 25 -25 36 0 11 -17 36 -39 56 -21 20 -44 47 -50 60 -7 12 -17 22 -24 20
-7 -1 -25 6 -40 17 -21 14 -28 24 -24 42 2 13 0 26 -4 29 -5 3 -9 14 -9 25 0
10 -4 19 -10 19 -5 0 -10 12 -11 28 l-1 27 -13 -30 c-13 -29 -14 -29 -15 -6 0
23 -1 24 -13 6 -10 -12 -16 -14 -21 -7 -4 7 -22 12 -41 12 -18 0 -35 6 -37 12
-3 9 -7 8 -14 -3z m6 -70 c0 -6 -7 -9 -14 -6 -11 5 -14 -1 -11 -23 2 -16 6
-34 10 -40 9 -14 -2 -12 -30 6 -13 8 -22 22 -19 30 2 8 6 21 9 29 5 17 55 21
55 4z m45 -29 c3 -5 1 -10 -4 -10 -6 0 -11 5 -11 10 0 6 2 10 4 10 3 0 8 -4
11 -10z m-270 -60 c3 -5 1 -10 -4 -10 -6 0 -11 5 -11 10 0 6 2 10 4 10 3 0 8
-4 11 -10z m105 -20 c0 -5 -4 -10 -10 -10 -5 0 -10 5 -10 10 0 6 5 10 10 10 6
0 10 -4 10 -10z m193 -60 c129 -24 218 -91 273 -203 23 -47 26 -61 20 -110 -4
-33 -15 -65 -27 -78 -11 -13 -29 -37 -39 -55 -27 -43 -95 -87 -123 -79 -12 4
-17 3 -11 -2 7 -5 1 -16 -20 -33 -16 -14 -26 -19 -22 -11 7 10 2 12 -25 5 -19
-4 -63 -9 -99 -10 -82 -2 -132 20 -204 92 -41 42 -55 63 -64 104 -19 82 -15
120 22 195 49 101 109 152 211 179 28 8 50 14 51 15 0 0 26 -4 57 -9z m-353
-10 c0 -5 -2 -10 -4 -10 -3 0 -8 5 -11 10 -3 6 -1 10 4 10 6 0 11 -4 11 -10z
m-20 -55 c-7 -9 -15 -13 -17 -11 -6 6 20 36 26 30 2 -2 -2 -10 -9 -19z"/>
<path d="M2795 1242 c-30 -6 -83 -49 -91 -74 -3 -12 -17 -33 -30 -46 -14 -16
-22 -37 -22 -56 1 -17 3 -25 5 -18 3 6 9 9 14 6 6 -3 2 -12 -8 -20 -16 -12
-16 -15 -3 -24 8 -5 22 -7 31 -4 12 3 18 -3 21 -19 4 -23 3 -23 -21 -11 -14 8
-31 14 -36 14 -6 0 -15 14 -20 31 -9 29 -28 37 -31 14 0 -5 -2 -17 -3 -25 -1
-12 -3 -12 -10 -2 -6 11 -10 10 -15 -4 -4 -11 -2 -20 3 -22 6 -2 11 -8 11 -13
0 -6 -4 -8 -9 -5 -4 3 -6 -5 -4 -19 3 -15 18 -30 38 -39 18 -9 35 -22 38 -29
8 -20 135 -58 207 -62 73 -4 150 14 206 47 58 33 137 116 130 134 -3 9 -6 22
-6 29 0 8 -14 30 -32 50 -24 28 -33 33 -40 23 -8 -10 -9 -9 -5 3 3 9 -1 26 -9
38 -18 25 -88 61 -120 61 -13 0 -26 5 -29 10 -3 6 -19 10 -35 10 -16 0 -31 4
-34 9 -7 10 -62 18 -91 13z m-108 -167 c0 -8 -4 -12 -9 -9 -5 3 -6 10 -3 15 9
13 12 11 12 -6z"/>
<path d="M2730 800 c8 -5 20 -10 25 -10 6 0 3 5 -5 10 -8 5 -19 10 -25 10 -5
0 -3 -5 5 -10z"/>
<path d="M2826 778 c3 -5 18 -8 34 -8 16 0 31 3 34 8 2 4 -13 7 -34 7 -21 0
-36 -3 -34 -7z"/>
<path d="M2676 1455 c4 -9 13 -15 21 -13 23 5 20 23 -4 26 -18 3 -21 0 -17
-13z"/>
<path d="M2264 1389 c12 -8 25 -8 40 -1 18 9 16 11 -19 11 -33 0 -37 -1 -21
-10z"/>
<path d="M2367 1359 c-9 -6 -27 -7 -38 -4 -15 5 -20 3 -17 -6 2 -7 15 -16 29
-20 23 -5 28 -30 9 -37 -5 -2 -4 -12 3 -23 13 -21 27 -25 27 -8 0 6 7 17 15
26 14 14 14 17 -2 28 -15 12 -16 17 -5 34 13 23 7 26 -21 10z"/>
<path d="M1190 1299 c0 -7 -9 -9 -25 -5 -14 4 -25 3 -25 -2 0 -4 -21 -9 -46
-10 -26 -1 -52 -6 -59 -12 -6 -5 -15 -7 -18 -4 -3 4 -13 -1 -22 -10 -16 -16
-40 -13 -30 4 3 4 -2 11 -11 14 -23 9 -27 8 -20 -9 3 -9 0 -15 -9 -15 -8 0
-15 5 -15 10 0 16 -27 12 -34 -5 -4 -12 -10 -13 -25 -6 -14 8 -21 8 -24 -2 -3
-9 -8 -8 -22 3 -14 12 -19 12 -23 2 -2 -8 -8 -10 -15 -4 -7 5 -45 12 -84 16
-40 3 -104 9 -142 12 -63 6 -70 5 -80 -15 -7 -11 -19 -21 -27 -21 -8 0 -13 -4
-10 -9 4 -5 2 -20 -3 -33 -6 -12 -10 -18 -10 -13 -1 11 -40 13 -57 2 -5 -3
-27 -4 -47 -3 -29 3 -37 0 -37 -13 0 -13 -2 -14 -9 -2 -8 12 -12 12 -26 -2 -9
-9 -14 -21 -11 -26 7 -11 -23 -25 -46 -22 -22 3 -24 -27 -2 -36 9 -3 13 -12 9
-21 -3 -8 -1 -18 5 -22 7 -4 7 -14 1 -31 -5 -13 -10 -19 -11 -14 0 6 -5 17
-10 25 -8 13 -11 12 -24 -5 -11 -14 -18 -17 -24 -8 -11 18 -48 9 -44 -11 2
-11 -5 -16 -24 -16 -19 0 -25 -4 -20 -15 3 -8 1 -15 -4 -15 -6 0 -10 6 -10 13
0 8 -4 7 -10 -3 -14 -21 -13 -390 1 -390 6 0 19 5 30 11 15 7 24 7 35 -2 10
-8 14 -8 14 0 0 6 18 11 45 11 55 0 60 -8 60 -105 l0 -70 -98 -9 -97 -8 0
-199 0 -199 1218 1 c669 0 1213 2 1207 5 -19 8 -240 65 -265 69 -37 5 -110 34
-139 54 -14 11 -42 50 -61 87 l-35 69 -5 336 -5 335 -40 1 c-22 0 -49 4 -59 8
-14 6 -17 5 -12 -3 4 -7 2 -12 -3 -12 -6 0 -11 -8 -11 -17 0 -9 -3 -13 -7 -9
-5 4 -8 12 -8 18 0 15 -37 19 -53 6 -10 -9 -16 -8 -23 3 -6 9 -9 10 -9 2 0 -7
-7 -10 -16 -6 -12 5 -15 0 -12 -23 2 -22 9 -30 26 -32 14 -2 22 -9 19 -17 -7
-16 12 -35 35 -35 10 0 18 -4 18 -10 0 -5 -9 -10 -21 -10 -15 0 -19 -4 -15
-16 3 -9 6 -22 6 -30 0 -8 8 -14 18 -14 11 -1 6 -6 -13 -15 -20 -9 -24 -14
-12 -14 21 -1 21 -10 2 -35 -15 -20 -15 -20 -15 0 -1 19 -1 19 -16 -1 -16 -20
-16 -20 -10 2 6 18 4 20 -14 16 -13 -3 -19 -11 -16 -19 3 -8 1 -14 -4 -14 -6
0 -10 6 -10 13 0 8 -9 22 -20 32 -13 12 -20 14 -20 5 0 -6 -6 -10 -14 -7 -8 3
-35 -9 -59 -28 -36 -27 -53 -34 -84 -32 -29 2 -40 -1 -39 -12 1 -7 -5 -16 -13
-19 -8 -3 -11 0 -7 7 4 6 2 11 -3 11 -13 0 -9 -36 5 -49 13 -14 144 -23 144
-11 0 5 5 10 10 10 6 0 10 -6 10 -14 0 -13 -130 -34 -360 -56 -58 -5 -125 -14
-150 -20 -50 -10 -291 -43 -330 -44 -33 -1 -50 35 -50 110 0 46 4 65 18 77 10
10 21 15 24 12 6 -7 68 15 68 24 0 4 25 7 55 8 43 1 59 6 73 22 18 23 32 26
212 45 14 2 52 17 84 34 33 17 63 29 68 26 5 -4 16 3 23 14 10 14 22 18 41 14
22 -4 26 -2 21 12 -4 9 -1 16 6 16 7 0 14 12 15 27 3 33 32 69 32 40 0 -10 -4
-15 -10 -12 -5 3 -10 1 -10 -5 0 -7 7 -9 16 -6 43 16 67 18 75 5 4 -7 12 -10
16 -5 4 5 2 11 -4 13 -7 3 -13 9 -13 15 0 6 -12 19 -26 30 -32 26 -19 43 21
28 19 -7 31 -7 40 0 7 6 25 8 40 4 19 -5 30 -2 40 12 16 23 3 44 -29 45 -11 0
-15 3 -8 6 19 8 14 30 -9 36 -18 5 -20 11 -15 32 5 21 3 28 -13 32 -12 3 -19
9 -16 13 3 4 -5 8 -18 8 -44 0 -79 9 -98 25 -11 10 -31 17 -45 17 -14 0 -36
11 -50 25 -27 28 -49 33 -41 11 4 -10 1 -13 -8 -9 -8 3 -13 9 -10 14 3 4 -4
13 -15 19 -15 8 -20 8 -20 -1z m307 -201 c-3 -8 -6 -5 -6 6 -1 11 2 17 5 13 3
-3 4 -12 1 -19z m-1286 -95 c-12 -20 -14 -14 -5 12 4 9 9 14 11 11 3 -2 0 -13
-6 -23z m56 -149 c-3 -3 -12 -4 -19 -1 -8 3 -5 6 6 6 11 1 17 -2 13 -5z m1573
-16 c0 16 25 15 38 0 15 -20 -3 -55 -33 -60 -22 -5 -27 -1 -32 24 -4 19 -10
27 -19 24 -11 -4 -11 -2 -2 14 11 18 14 18 30 3 11 -10 18 -12 18 -5z m-1330
-187 c0 -3 14 -6 31 -7 50 -2 71 -32 77 -112 2 -38 1 -72 -4 -75 -12 -6 -303
-31 -308 -26 -3 2 -8 48 -12 101 -7 96 -7 97 15 91 12 -3 32 -1 44 4 58 28 75
32 115 31 23 -1 42 -4 42 -7z m-245 -118 c4 -43 7 -85 8 -93 1 -9 -8 -16 -25
-18 l-28 -3 0 90 c0 85 4 97 32 100 3 1 9 -34 13 -76z"/>
<path d="M2182 1303 c-20 -8 -41 -70 -36 -106 3 -17 7 -41 8 -52 4 -30 32 -30
40 0 4 14 4 30 1 35 -4 6 -1 10 4 10 6 0 20 9 31 20 22 22 29 24 49 11 12 -8
13 -12 1 -25 -11 -14 -11 -16 2 -11 17 7 48 -19 48 -39 0 -6 -5 -17 -10 -22
-8 -8 -6 -15 4 -23 13 -11 20 -9 42 8 24 19 25 21 6 21 -11 0 -23 7 -26 16 -9
23 -8 24 13 24 44 0 18 51 -29 56 -8 1 -35 7 -59 12 -25 6 -49 8 -55 5 -6 -4
-6 1 -2 13 18 43 5 62 -32 47z"/>
<path d="M3752 1295 c-11 -12 -10 -15 3 -15 8 0 15 7 15 15 0 18 -2 18 -18 0z"/>
<path d="M3823 1258 c-12 -17 -14 -58 -3 -58 5 0 11 -8 13 -17 3 -10 5 6 6 35
1 55 -1 60 -16 40z"/>
<path d="M2460 1232 c0 -12 19 -26 26 -19 2 2 -2 10 -11 17 -9 8 -15 8 -15 2z"/>
<path d="M2256 1155 c4 -8 8 -15 10 -15 2 0 4 7 4 15 0 8 -4 15 -10 15 -5 0
-7 -7 -4 -15z"/>
<path d="M2252 1099 c3 -8 16 -14 29 -14 19 0 23 -5 22 -22 -3 -24 4 -28 25
-14 12 7 12 12 1 30 -8 11 -21 21 -31 21 -9 0 -24 3 -34 7 -12 4 -15 2 -12 -8z"/>
<path d="M2393 1085 c0 -13 9 -15 45 -10 53 6 68 15 26 15 -16 0 -38 3 -50 6
-15 4 -21 1 -21 -11z"/>
<path d="M90 1073 c0 -15 2 -16 10 -3 8 13 10 12 10 -4 0 -18 1 -19 20 -1 11
10 18 21 15 24 -4 3 -10 -1 -14 -8 -6 -9 -11 -10 -15 -2 -11 17 -26 13 -26 -6z"/>
<path d="M2173 1079 c-37 -11 -42 -24 -14 -39 23 -12 31 -13 30 -2 -3 19 2 26
10 13 6 -9 16 -11 27 -6 18 7 18 8 -1 15 -11 5 -14 9 -7 9 6 1 12 6 12 11 0
12 -13 12 -57 -1z"/>
<path d="M1781 1004 c0 -11 3 -14 6 -6 3 7 2 16 -1 19 -3 4 -6 -2 -5 -13z"/>
<path d="M1607 964 c7 -3 10 -18 6 -38 -4 -25 -1 -35 12 -39 14 -6 16 -1 14
26 -3 36 -16 57 -33 56 -8 0 -7 -2 1 -5z"/>
<path d="M1570 935 c14 -16 6 -35 -16 -35 -8 0 -14 -4 -14 -9 0 -5 -8 -12 -17
-14 -10 -3 4 -5 31 -6 45 -1 48 0 42 22 -3 12 -6 30 -6 40 0 9 -7 17 -16 17
-13 0 -14 -3 -4 -15z"/>
<path d="M3819 777 c-14 -10 -15 -22 -7 -77 13 -85 12 -200 -1 -213 -6 -6 -11
-21 -11 -33 0 -27 -43 -116 -65 -134 -8 -7 -15 -18 -15 -25 0 -7 -7 -18 -15
-25 -9 -7 -13 -15 -11 -17 3 -3 -5 -15 -18 -27 -12 -11 -25 -29 -29 -38 -3
-10 -13 -18 -21 -18 -8 0 -17 -9 -21 -19 -3 -10 -18 -22 -33 -26 -27 -7 -62
-37 -62 -53 0 -5 -9 -17 -20 -27 -45 -41 -31 -45 165 -45 l185 0 0 395 c0 217
-1 395 -2 395 -2 0 -10 -6 -19 -13z"/>
<path d="M1050 696 c0 -8 5 -18 10 -21 6 -3 10 1 10 9 0 8 -4 18 -10 21 -5 3
-10 -1 -10 -9z"/>
<path d="M1310 599 c0 -5 5 -7 10 -4 6 3 10 8 10 11 0 2 -4 4 -10 4 -5 0 -10
-5 -10 -11z"/>
<path d="M3235 580 c4 -6 11 -8 16 -5 14 9 11 15 -7 15 -8 0 -12 -5 -9 -10z"/>
<path d="M3111 528 c1 -13 5 -34 9 -48 7 -21 8 -19 9 17 1 23 -3 45 -9 48 -6
3 -10 -4 -9 -17z"/>
<path d="M3373 543 c9 -2 23 -2 30 0 6 3 -1 5 -18 5 -16 0 -22 -2 -12 -5z"/>
<path d="M3328 533 c7 -3 16 -2 19 1 4 3 -2 6 -13 5 -11 0 -14 -3 -6 -6z"/>
<path d="M2871 454 c0 -11 3 -14 6 -6 3 7 2 16 -1 19 -3 4 -6 -2 -5 -13z"/>
<path d="M3190 457 c0 -9 10 -22 23 -28 l22 -12 -20 24 c-11 13 -21 26 -22 28
-2 2 -3 -3 -3 -12z"/>
<path d="M3150 411 c0 -11 4 -22 9 -26 5 -3 12 -19 16 -35 5 -24 9 -27 20 -17
10 10 9 17 -6 39 -11 14 -19 31 -19 36 0 6 -4 14 -10 17 -5 3 -10 -3 -10 -14z"/>
<path d="M3290 416 c0 -3 9 -10 20 -16 11 -6 20 -8 20 -6 0 3 -9 10 -20 16
-11 6 -20 8 -20 6z"/>
<path d="M3140 360 c0 -5 5 -10 10 -10 6 0 10 5 10 10 0 6 -4 10 -10 10 -5 0
-10 -4 -10 -10z"/>
<path d="M3220 348 c0 -9 7 -19 16 -22 25 -10 27 -1 4 19 -17 15 -20 16 -20 3z"/>
<path d="M3290 301 c0 -5 5 -13 10 -16 6 -3 10 -2 10 4 0 5 -4 13 -10 16 -5 3
-10 2 -10 -4z"/>
<path d="M3230 280 c0 -5 5 -10 11 -10 5 0 7 5 4 10 -3 6 -8 10 -11 10 -2 0
-4 -4 -4 -10z"/>
</g>
</svg>
